# xmcd CD database file
#
# Track frame offsets:
#	150
#	13902
#	29997
#	42932
#	52175
#	64742
#	79102
#	91550
#	105997
#	119877
#	131095
#	143677
#
# Disc length: 2099 seconds
#
# Revision: 4
# Processed by: cddbd v1.5.1PL0 Copyright (c) Steve Scherf et al.
# Submitted via: CDex 1.51
#
DISCID=aa08310c
DTITLE=ポール・モーリア - 哀愁のロシアン・メロディ
DYEAR=1993
DGENRE=Easy Listening
TTITLE0=ポールシカ・ポーレ
TTITLE1=２つのギター
TTITLE2=赤いサラファン
TTITLE3=カチューシャ
TTITLE4=モスクワの夜は更けて
TTITLE5=黒い瞳
TTITLE6=ヴォルガの舟歌
TTITLE7=カリンカ
TTITLE8=哀愁のカレリア
TTITLE9=夕べの鐘
TTITLE10=ブブリチキ
TTITLE11=ステンカ・ラージン
EXTD=731451851827\nPaul Mauriat YEAR: 1993.11.26
EXTT0=
EXTT1=
EXTT2=
EXTT3=
EXTT4=
EXTT5=
EXTT6=
EXTT7=
EXTT8=
EXTT9=
EXTT10=
EXTT11=
PLAYORDER=
